<svg width="20" height="21" viewBox="0 0 20 21" fill="none" xmlns="http://www.w3.org/2000/svg">
<g id="chick-svgrepo-com 1" clip-path="url(#clip0_3552_761)">
<g id="Group">
<path id="Vector" d="M19.053 7.15698L19.0426 7.09923L19.0202 7.04513C18.9898 6.97081 18.944 6.84337 18.8858 6.691C18.7266 6.27814 18.4727 5.67115 18.0024 5.11891C18.003 5.0907 18.004 5.06313 18.004 5.0336C18.0043 3.64535 17.467 2.3835 16.6003 1.47418C15.7343 0.56417 14.5323 -0.000327982 13.2101 1.42969e-07C11.8879 -0.000327982 10.6863 0.56417 9.82016 1.47418C8.95379 2.38354 8.41582 3.64535 8.41613 5.0336C8.41582 5.49289 8.46766 5.89116 8.5391 6.25989C8.61082 6.62894 8.69934 6.96778 8.77961 7.33351C8.80871 7.46722 8.84504 7.58305 8.88074 7.68333C7.93317 7.58641 7.07313 7.53863 6.29934 7.53863C5.46207 7.53863 4.72531 7.59371 4.08305 7.70392C3.60133 7.78657 3.17242 7.90006 2.79375 8.04772C2.22766 8.26945 1.76653 8.56944 1.43715 8.97467C1.2734 9.1768 1.14539 9.40476 1.06102 9.6497C0.97633 9.89465 0.935236 10.1548 0.935549 10.419C0.935861 10.873 1.05188 11.3356 1.25668 11.8072C1.46184 12.2791 1.75731 12.7634 2.13821 13.2675C2.40465 13.6196 2.59844 13.8798 2.76313 14.1357C2.9284 14.3922 3.06969 14.6484 3.23785 15.0158C3.76379 16.1654 4.50121 17.1677 5.44848 17.8876C6.0266 18.328 6.68465 18.6582 7.40817 18.848L6.43024 21H9.39V20.0561H7.85547L8.33117 19.0094C8.5066 19.025 8.68453 19.034 8.86567 19.0336C9.83063 19.034 10.7466 18.8089 11.5694 18.4087L12.8097 20.4551L15.2324 19.5576L14.9334 18.6675L13.1845 19.3154L12.358 17.9523C12.7423 17.6915 13.0995 17.3901 13.4207 17.0526C14.5861 15.8303 15.308 14.1357 15.308 12.2699H15.3077C15.3098 12.2225 15.3114 12.175 15.3114 12.1265C15.3105 11.789 15.2697 11.4063 15.2311 11.02C15.1926 10.6357 15.1562 10.2507 15.1566 9.96064C15.1559 9.80864 15.1682 9.6865 15.1821 9.6198C15.8649 9.29558 16.4591 8.80966 16.925 8.20899C17.3843 8.19373 17.7844 8.15788 18.1077 8.09546C18.2035 8.07655 18.2933 8.05567 18.3786 8.03012C18.5073 7.99029 18.6242 7.94747 18.7522 7.85987C18.8161 7.81438 18.885 7.75597 18.9491 7.66139C18.9807 7.61426 19.0104 7.55721 19.0313 7.49216C19.0528 7.42707 19.0651 7.35406 19.0648 7.28208C19.0648 7.23827 19.0604 7.19615 19.053 7.15698ZM17.4771 7.07302C17.2407 7.09558 16.9625 7.10985 16.6566 7.11416L16.3942 7.11814L16.24 7.34114C15.8407 7.91831 15.2981 8.37728 14.6678 8.6577C14.5193 8.72275 14.4014 8.83792 14.3274 8.95141C14.2702 9.03771 14.2326 9.12434 14.2041 9.20829C14.1621 9.33471 14.1403 9.45718 14.1264 9.58129C14.1131 9.70545 14.108 9.83153 14.108 9.96064C14.1087 10.3373 14.1495 10.7469 14.1884 11.1348C14.2272 11.5205 14.2633 11.8879 14.2627 12.1265C14.2627 12.168 14.2617 12.2051 14.2598 12.2364L14.2592 12.2533V12.2699C14.2589 13.835 13.6561 15.2475 12.6791 16.274C11.7015 17.2995 10.3566 17.9324 8.86567 17.9324C7.7682 17.9311 6.84527 17.5873 6.06301 16.9952C5.28293 16.4032 4.64699 15.5528 4.18297 14.539C4.15641 14.4806 4.12985 14.4275 4.10395 14.3727C4.59481 14.5459 5.0427 14.6644 5.44004 14.7421C6.11863 14.8752 6.65438 14.8944 7.01094 14.8944C7.15317 14.8944 7.26727 14.8918 7.34281 14.8918C7.54953 14.8918 7.71735 14.7155 7.71735 14.4982C7.71735 14.2808 7.54949 14.1049 7.34281 14.1049C7.25145 14.1049 7.14367 14.1079 7.01094 14.1079C6.68098 14.1079 6.2002 14.0906 5.57719 13.9689C4.99309 13.8543 4.28321 13.6452 3.46485 13.2706C3.31567 13.0561 3.15258 12.8388 2.95946 12.5829C2.6184 12.1319 2.36934 11.7164 2.21067 11.3507C2.05137 10.9842 1.98375 10.671 1.98438 10.4191C1.98629 10.1565 2.04824 9.95675 2.18129 9.76094C2.28278 9.61525 2.43195 9.47055 2.64656 9.33413C2.96645 9.13004 3.43266 8.95113 4.04328 8.82931C4.65399 8.70651 5.40715 8.63949 6.29942 8.63949C7.10008 8.63949 8.01195 8.69326 9.0357 8.80614L9.11508 8.81475L9.19344 8.79847C9.2911 8.77792 9.3793 8.75536 9.46336 8.72644C9.52723 8.70454 9.58949 8.67895 9.65301 8.6438C9.70074 8.61796 9.74942 8.58572 9.79809 8.54392C9.87078 8.48252 9.94348 8.39393 9.99028 8.28836C10.0383 8.18319 10.0566 8.06966 10.0557 7.97705C10.0544 7.84063 10.0263 7.74506 10.0019 7.66607C9.96336 7.54925 9.92387 7.46164 9.88938 7.37039C9.85461 7.27978 9.82399 7.18885 9.80121 7.08594C9.71492 6.69367 9.62863 6.36181 9.56699 6.04086C9.50504 5.71963 9.46524 5.40865 9.46492 5.03364C9.46524 3.94574 9.88344 2.96666 10.5617 2.25311C11.2413 1.54059 12.1743 1.10152 13.2101 1.10119C14.2459 1.10152 15.1793 1.54059 15.8585 2.25311C16.5372 2.96666 16.9553 3.9457 16.9556 5.03364C16.9556 5.11428 16.9515 5.19988 16.9458 5.29216L16.931 5.54408L17.1029 5.72065C17.3754 5.99977 17.5748 6.33429 17.7237 6.65089C17.7838 6.77968 17.834 6.90211 17.8798 7.01896C17.7676 7.03947 17.6323 7.05842 17.4771 7.07302Z" fill="#ECEDEE"/>
<path id="Vector_2" d="M14.1341 4.53546C13.8032 4.53546 13.5352 4.81724 13.5352 5.16501C13.5352 5.51217 13.8032 5.79427 14.1341 5.79427C14.4651 5.79427 14.7334 5.51217 14.7334 5.16501C14.7334 4.81724 14.4651 4.53546 14.1341 4.53546Z" fill="#ECEDEE"/>
</g>
</g>
<defs>
<clipPath id="clip0_3552_761">
<rect width="20" height="21" fill="white"/>
</clipPath>
</defs>
</svg>
